<?xml version="1.0" encoding="iso-8859-1"?>
<!-- Uploaded to: SVG Repo, www.svgrepo.com, Generator: SVG Repo Mixer Tools -->
<svg version="1.1" id="Layer_1" xmlns="http://www.w3.org/2000/svg" xmlns:xlink="http://www.w3.org/1999/xlink" 
	 viewBox="0 0 512.001 512.001" xml:space="preserve">
<circle style="fill:#394CE2;" cx="255.997" cy="255.996" r="255.996"/>
<path style="fill:#1B2DDD;" d="M512.001,255.999c0-2.744-0.059-5.474-0.144-8.198L339.034,75.527
	c-3.561-5.211-9.546-8.651-16.298-8.651H189.264c-10.851,0-19.729,8.878-19.729,19.729v37.069l7.399,5.219v23.483H108.64
	c-17.859,0-32.471,14.612-32.471,32.471v194.971c0,10.252,4.82,19.426,12.3,25.389l96.926,96.926
	c22.427,6.422,46.113,9.867,70.604,9.867C397.385,512,512.001,397.385,512.001,255.999z"/>
<rect x="176.931" y="113.098" style="fill:#FFFFFF;" width="23.913" height="41.309"/>
<rect x="311.156" y="113.098" style="fill:#E1E1E3;" width="23.913" height="41.309"/>
<path style="fill:#FFA91F;" d="M322.737,66.876H189.264c-10.851,0-19.729,8.878-19.729,19.729v37.069h38.711v-21.152h95.51v21.153
	h38.711V86.606C342.466,75.754,333.588,66.876,322.737,66.876z"/>
<path style="fill:#FF8800;" d="M303.755,102.523v21.153h38.711V86.606c0-10.851-8.878-19.729-19.729-19.729h-66.74v35.646H303.755z"
	/>
<path style="fill:#FFA91F;" d="M403.361,412.289H108.64c-17.859,0-32.471-14.612-32.471-32.471V184.847
	c0-17.858,14.612-32.471,32.471-32.471h294.722c17.858,0,32.471,14.612,32.471,32.471v194.971
	C435.832,397.677,421.22,412.289,403.361,412.289z"/>
<path style="fill:#FF8800;" d="M403.361,152.377H255.997v259.911h147.364c17.858,0,32.471-14.612,32.471-32.47V184.848
	C435.832,166.989,421.22,152.377,403.361,152.377z"/>
<rect x="123.38" y="152.375" style="fill:#FFFFFF;" width="27.858" height="259.915"/>
<rect x="360.767" y="152.375" style="fill:#E1E1E3;" width="27.858" height="259.915"/>
<rect x="175.976" y="205.588" transform="matrix(-0.9144 0.4049 -0.4049 -0.9144 480.9469 374.6706)" style="fill:#FFFFFF;" width="49.753" height="65.213"/>
<rect x="182.088" y="212.055" transform="matrix(-0.9144 0.4049 -0.4049 -0.9144 480.9527 374.6664)" style="fill:#FF3C62;" width="37.535" height="52.277"/>
<rect x="281.608" y="318.37" transform="matrix(-0.8717 -0.49 0.49 -0.8717 401.6678 807.1045)" style="fill:#E1E1E3;" width="49.75" height="65.21"/>
<rect x="287.714" y="324.848" transform="matrix(-0.8717 -0.49 0.49 -0.8717 401.6589 807.1239)" style="fill:#008C49;" width="37.532" height="52.274"/>
</svg>